<svg xmlns="http://www.w3.org/2000/svg" width="940.96" height="405.99" viewBox="0 0 940.96391 405.9881"><defs><linearGradient id="linearGradient5444" y1="-127.46" x2="0" y2="-408.19" gradientUnits="userSpaceOnUse"><stop stop-color="#cf7f28"/><stop offset="1" stop-color="#f2dd2b"/></linearGradient></defs><g transform="translate(-32.604 462.88)"><g fill-rule="evenodd" stroke="#000"><path d="m390.71-397.52c0-15.535 14.05-.912 14.05-39.871 0-7.195-11.762-15.657-14.737-15.677l-332.37-2.305c-7.442 0-13.829 6.346-13.829 13.829v42.41c0 4.662 5.375 9.31 5.375 9.31 0 0-9.1 2.768-9.1 6.791v46.592c0 3.933 6.398 11.541 11.541 11.541h16.15v42.624c0 9.701 13.09 14.06 18.05 14.06 14.646 0 67.973-3.791 80.83-3.688 57.803 0 98.24 20.297 98.24 28.4l23.22 33.769 154.67 41.44v-120.2h-52.1c0 0 0-93.49 0-109.02z" stroke-width="5"/><g color-rendering="auto" shape-rendering="auto" color-interpolation-filters="linearRGB" image-rendering="auto" color-interpolation="sRGB" color="#000" stroke-width="3"><path d="m57.654-452.88l332.35 2.305c-.43-.003.938.282 2.293 1.092 1.355.809 2.995 2.01 4.525 3.404 3.061 2.789 5.436 6.444 5.436 8.68 0 9.59-.879 15.762-2.088 19.758-1.209 3.996-2.636 5.782-4.105 7.104-1.47 1.321-3.259 2.135-4.992 4.01-1.734 1.873-2.859 4.741-2.859 9v111.52h52.1v114.44l-150.63-40.36-22.572-32.828c-.342-1.464-1.075-2.779-2.193-4-1.435-1.567-3.388-3.119-5.855-4.719-4.936-3.199-11.943-6.549-20.754-9.643-17.618-6.186-42.42-11.3-71.61-11.303h-.019c-6.709-.053-23.12.874-39.881 1.809-16.769.935-33.84 1.879-40.947 1.879-1.752 0-6.154-.995-9.615-3.041-3.461-2.046-5.938-4.787-5.938-8.514v-45.12h-18.65c-1.339 0-3.912-1.409-5.875-3.504-1.963-2.095-3.166-4.926-3.166-5.537v-46.592c0-.064.081-.4.66-.961.579-.561 1.542-1.2 2.551-1.73 2.02-1.06 4.113-1.707 4.113-1.707l4.334-1.32-3.428-2.963c0 0-1.162-1.01-2.342-2.541-1.18-1.532-2.168-3.509-2.168-4.879v-42.41c0-6.06 5.309-11.328 11.33-11.328z" isolation="auto" fill="#ffd800"/><path d="m57.654-452.88l332.35 2.305c2.278 0 4.939 2.797 6.818 4.496 3.061 2.789 5.436 6.444 5.436 8.68 0 9.59-.879 15.762-2.088 19.758-1.209 3.996-2.636 5.782-4.105 7.104-1.47 1.321-3.259 2.135-4.992 4.01-1.734 1.873-2.859 4.741-2.859 9v111.52c2.364 51.37-129.74-1.758-129.74-71.26 0-7.277-26.343-33.687-123.28-33.11-10.709.064-20.08 1.62-80.932 1.62l-3.428-2.963c0 0-1.162-1.01-2.342-2.541-1.18-1.532-2.168-3.509-2.168-4.879v-42.41c0-6.06 5.309-11.328 11.33-11.328z" isolation="auto" fill="#e20c0c"/><path d="m164.64-329.27c-45.4 0-83.21 1.863-94.34 1.863v45.13c0 3.726 2.477 6.467 5.938 8.514 3.461 2.046 7.863 3.041 9.615 3.041 7.107 0 24.18-.944 40.947-1.879 16.759-.934 33.17-1.861 39.881-1.809h.019c29.19.002 53.989 5.116 71.61 11.303 8.811 3.094 15.818 6.444 20.754 9.643 2.468 1.599 4.42 3.152 5.855 4.719 1.118 1.221 1.852 2.536 2.193 4l22.572 32.828 150.63 40.36c-6.97-26.01-41.44-56.93-91.25-56.93-42.671 0-94.54-36.565-94.54-64.19 0-21.646-52.985-36.588-89.88-36.588z" isolation="auto" fill="#0badda"/></g></g><rect ry="4.937" rx="5" y="-443.57" x="60.23" height="9.875" width="326.39" fill="#eb5454"/><path d="m174.11-381.85c0 0-37.67 2.298-50.19 2.298-19.572.113-67.16-2.298-67.16-2.298-2.768-.095-5 1.744-5 3.91v2.054c0 2.166 2.23 3.91 5 3.91 51.03 0 99.69-2.55 131.72-2.55 21.727 0 64.52 25.22 64.52 25.22 0-2.166-31.22-32.548-78.893-32.548" fill="#ffe03b"/><g fill-rule="evenodd"><path d="m82.09-316.16c-1.043 0-.503-2.871-2.298-2.871-1.786 0-2.525 8.256 2.298 8.308h45.887c18.453-.837 18.856-3.182 42.502-3.182 33.517 0 59.888 20.86 65.23 20.86 0-3.137-29.977-26.07-76.54-26.07 0 0-22.523 2.203-25.986 2.203-4 0-35.713.75-51.09.75" fill="#54c5e5"/><g stroke="#000"><path d="m615.46-397.52c0-15.535-14.05-.912-14.05-39.871 0-7.195 11.762-15.657 14.737-15.677l332.37-2.305c7.442 0 13.829 6.346 13.829 13.829v42.41c0 4.662-5.375 9.31-5.375 9.31 0 0 9.1 2.768 9.1 6.791v46.592c0 3.933-6.398 11.541-11.541 11.541h-16.15v42.624c0 9.701-13.09 14.06-18.05 14.06-14.646 0-67.973-3.791-80.83-3.688-57.803 0-98.24 20.297-98.24 28.4l-23.22 33.769-154.67 41.44v-120.2h52.1c0 0 0-93.49 0-109.02z" stroke-width="5"/><g color-rendering="auto" shape-rendering="auto" color-interpolation-filters="linearRGB" image-rendering="auto" color-interpolation="sRGB" color="#000" stroke-width="3"><path d="m948.52-452.88l-332.35 2.305c.43-.003-.938.282-2.293 1.092-1.355.809-2.995 2.01-4.525 3.404-3.061 2.789-5.436 6.444-5.436 8.68 0 9.59.879 15.762 2.088 19.758 1.209 3.996 2.636 5.782 4.105 7.104 1.47 1.321 3.259 2.135 4.992 4.01 1.734 1.873 2.859 4.741 2.859 9v111.52h-52.1v114.44l150.63-40.36 22.572-32.828c.342-1.464 1.075-2.779 2.193-4 1.435-1.567 3.388-3.119 5.855-4.719 4.936-3.199 11.943-6.549 20.754-9.643 17.618-6.186 42.42-11.3 71.61-11.303h.019c6.709-.053 23.12.874 39.881 1.809 16.769.935 33.84 1.879 40.947 1.879 1.752 0 6.154-.995 9.615-3.041 3.461-2.046 5.938-4.787 5.938-8.514v-45.12h18.65c1.339 0 3.912-1.409 5.875-3.504 1.963-2.095 3.166-4.926 3.166-5.537v-46.592c0-.064-.081-.4-.66-.961-.579-.561-1.542-1.2-2.551-1.73-2.02-1.06-4.113-1.707-4.113-1.707l-4.334-1.32 3.428-2.963c0 0 1.162-1.01 2.342-2.541 1.18-1.532 2.168-3.509 2.168-4.879v-42.41c0-6.06-5.309-11.328-11.33-11.328z" isolation="auto" fill="#ffd800"/><path d="m948.52-452.88l-332.35 2.305c-2.278 0-4.939 2.797-6.818 4.496-3.061 2.789-5.436 6.444-5.436 8.68 0 9.59.879 15.762 2.088 19.758 1.209 3.996 2.636 5.782 4.105 7.104 1.47 1.321 3.259 2.135 4.992 4.01 1.734 1.873 2.859 4.741 2.859 9v111.52c-2.364 51.37 129.74-1.758 129.74-71.26 0-7.277 26.343-33.687 123.28-33.11 10.709.064 20.08 1.62 80.932 1.62l3.428-2.963c0 0 1.162-1.01 2.342-2.541 1.18-1.532 2.168-3.509 2.168-4.879v-42.41c0-6.06-5.309-11.328-11.33-11.328z" isolation="auto" fill="#e20c0c"/><path d="m841.53-329.27c45.4 0 83.21 1.863 94.34 1.863v45.13c0 3.726-2.477 6.467-5.938 8.514-3.461 2.046-7.863 3.041-9.615 3.041-7.107 0-24.18-.944-40.947-1.879-16.759-.934-33.17-1.861-39.881-1.809h-.019c-29.19.002-53.989 5.116-71.61 11.303-8.811 3.094-15.818 6.444-20.754 9.643-2.468 1.599-4.42 3.152-5.855 4.719-1.118 1.221-1.852 2.536-2.193 4l-22.572 32.828-150.63 40.36c6.97-26.01 41.44-56.93 91.25-56.93 42.671 0 94.54-36.565 94.54-64.19 0-21.646 52.985-36.588 89.88-36.588z" isolation="auto" fill="#0badda"/></g></g></g><rect width="326.39" height="9.875" x="-945.94" y="-443.57" rx="5" ry="4.937" transform="scale(-1 1)" fill="#eb5454"/><path d="m832.07-381.85c0 0 37.67 2.298 50.19 2.298 19.572.113 67.16-2.298 67.16-2.298 2.768-.095 5 1.744 5 3.91v2.054c0 2.166-2.23 3.91-5 3.91-51.03 0-99.69-2.55-131.72-2.55-21.727 0-64.52 25.22-64.52 25.22 0-2.166 31.22-32.548 78.893-32.548" fill="#ffe03b"/><g fill-rule="evenodd"><path d="m924.08-316.16c1.043 0 .503-2.871 2.298-2.871 1.786 0 2.525 8.256-2.298 8.308h-45.887c-18.453-.837-18.856-3.182-42.502-3.182-33.517 0-59.888 20.86-65.23 20.86 0-3.137 29.977-26.07 76.54-26.07 0 0 22.523 2.203 25.986 2.203 4 0 35.713.75 51.09.75" fill="#54c5e5"/><path d="m425.6-408.1c-37.14 0-76.42 31.836-76.42 79.09 0 112.28 144.08 204.98 153.91 204.98 9.832 0 153.91-92.7 153.91-204.98 0-47.26-39.28-79.09-76.43-79.09-56.43 0-77.49 50.53-77.49 50.53 0 0-21.06-50.53-77.49-50.53z" fill="url(#linearGradient5444)" stroke="#000" stroke-width="6"/></g><path d="m392.14-396.1c-.482.002-.962.065-1.428.188-.937.53-1.863 1.081-2.781 1.652-.989 1.062-1.539 2.459-1.541 3.91 0 3.176 2.574 5.75 5.75 5.75 3.176 0 5.75-2.574 5.75-5.75 0-3.176-2.574-5.75-5.75-5.75m18.203 0c-3.176 0-5.75 2.574-5.75 5.75 0 3.176 2.574 5.75 5.75 5.75 3.176 0 5.75-2.574 5.75-5.75 0-3.176-2.574-5.75-5.75-5.75m18.203 0c-3.176 0-5.75 2.574-5.75 5.75 0 3.176 2.574 5.75 5.75 5.75 3.176 0 5.75-2.574 5.75-5.75 0-3.176-2.574-5.75-5.75-5.75m18.203 0c-3.176 0-5.75 2.574-5.75 5.75 0 3.176 2.574 5.75 5.75 5.75 3.176 0 5.75-2.574 5.75-5.75 0-3.176-2.574-5.75-5.75-5.75m109.22 0c-3.176 0-5.75 2.574-5.75 5.75 0 3.176 2.574 5.75 5.75 5.75 3.176 0 5.75-2.574 5.75-5.75 0-3.176-2.574-5.75-5.75-5.75m18.203 0c-3.176 0-5.75 2.574-5.75 5.75 0 3.176 2.574 5.75 5.75 5.75 3.176 0 5.75-2.574 5.75-5.75 0-3.176-2.574-5.75-5.75-5.75m18.203 0c-3.176 0-5.75 2.574-5.75 5.75 0 3.176 2.574 5.75 5.75 5.75 3.176 0 5.75-2.574 5.75-5.75 0-3.176-2.574-5.75-5.75-5.75m18.203 0c-3.176 0-5.75 2.574-5.75 5.75 0 3.176 2.574 5.75 5.75 5.75 3.176 0 5.75-2.574 5.75-5.75 0-3.176-2.574-5.75-5.75-5.75m-146.98.17c-2.574.626-4.387 2.931-4.391 5.58 0 3.176 2.574 5.75 5.75 5.75 3.176 0 5.75-2.574 5.75-5.75-.002-.437-.054-.872-.154-1.297-2.185-1.503-4.494-2.944-6.955-4.283m77.13.658c-3.11 1.762-5.997 3.668-8.654 5.672.376 2.858 2.81 4.996 5.693 5 3.176 0 5.75-2.574 5.75-5.75-.003-2.02-1.061-3.884-2.789-4.922m82.31 4.773c-.003.049-.005.099-.006.148 0 3.176 2.574 5.75 5.75 5.75.382-.001.763-.039 1.137-.115-2.191-2.074-4.494-3.997-6.881-5.783m-249.1 10.549c-3.176 0-5.75 2.574-5.75 5.75 0 3.176 2.574 5.75 5.75 5.75 3.176 0 5.75-2.574 5.75-5.75 0-3.176-2.574-5.75-5.75-5.75m18.203 0c-3.176 0-5.75 2.574-5.75 5.75 0 3.176 2.574 5.75 5.75 5.75 3.176 0 5.75-2.574 5.75-5.75 0-3.176-2.574-5.75-5.75-5.75m18.203 0c-3.176 0-5.75 2.574-5.75 5.75 0 3.176 2.574 5.75 5.75 5.75 3.176 0 5.75-2.574 5.75-5.75 0-3.176-2.574-5.75-5.75-5.75m18.203 0c-3.176 0-5.75 2.574-5.75 5.75 0 3.176 2.574 5.75 5.75 5.75 3.176 0 5.75-2.574 5.75-5.75 0-3.176-2.574-5.75-5.75-5.75m18.203 0c-3.176 0-5.75 2.574-5.75 5.75 0 3.176 2.574 5.75 5.75 5.75 3.176 0 5.75-2.574 5.75-5.75 0-3.176-2.574-5.75-5.75-5.75m18.203 0c-3.176 0-5.75 2.574-5.75 5.75 0 3.176 2.574 5.75 5.75 5.75 3.176 0 5.75-2.574 5.75-5.75 0-3.176-2.574-5.75-5.75-5.75m18.203 0c-3.176 0-5.75 2.574-5.75 5.75 0 3.176 2.574 5.75 5.75 5.75 3.176 0 5.75-2.574 5.75-5.75-.002-.092-.007-.184-.014-.275-1.405-1.755-2.968-3.558-4.668-5.371-.352-.068-.71-.102-1.068-.104m54.609 0c-3.176 0-5.75 2.574-5.75 5.75 0 3.176 2.574 5.75 5.75 5.75 3.176 0 5.75-2.574 5.75-5.75 0-3.176-2.574-5.75-5.75-5.75m18.203 0c-3.176 0-5.75 2.574-5.75 5.75 0 3.176 2.574 5.75 5.75 5.75 3.176 0 5.75-2.574 5.75-5.75 0-3.176-2.574-5.75-5.75-5.75m18.203 0c-3.176 0-5.75 2.574-5.75 5.75 0 3.176 2.574 5.75 5.75 5.75 3.176 0 5.75-2.574 5.75-5.75 0-3.176-2.574-5.75-5.75-5.75m18.203 0c-3.176 0-5.75 2.574-5.75 5.75 0 3.176 2.574 5.75 5.75 5.75 3.176 0 5.75-2.574 5.75-5.75 0-3.176-2.574-5.75-5.75-5.75m18.203 0c-3.176 0-5.75 2.574-5.75 5.75 0 3.176 2.574 5.75 5.75 5.75 3.176 0 5.75-2.574 5.75-5.75 0-3.176-2.574-5.75-5.75-5.75m18.203 0c-3.176 0-5.75 2.574-5.75 5.75 0 3.176 2.574 5.75 5.75 5.75 3.176 0 5.75-2.574 5.75-5.75 0-3.176-2.574-5.75-5.75-5.75m-107.65.219c-2.581 2.762-4.819 5.497-6.723 8.07.966 1.964 2.964 3.208 5.152 3.211 3.176 0 5.75-2.574 5.75-5.75 0-2.571-1.707-4.829-4.18-5.531m-147.2 15.932c-3.176 0-5.75 2.574-5.75 5.75 0 3.176 2.574 5.75 5.75 5.75 3.176 0 5.75-2.574 5.75-5.75 0-3.176-2.574-5.75-5.75-5.75m18.203 0c-3.176 0-5.75 2.574-5.75 5.75 0 3.176 2.574 5.75 5.75 5.75 3.176 0 5.75-2.574 5.75-5.75 0-3.176-2.574-5.75-5.75-5.75m18.203 0c-3.176 0-5.75 2.574-5.75 5.75 0 3.176 2.574 5.75 5.75 5.75 3.176 0 5.75-2.574 5.75-5.75 0-3.176-2.574-5.75-5.75-5.75m18.203 0c-3.176 0-5.75 2.574-5.75 5.75 0 3.176 2.574 5.75 5.75 5.75 3.176 0 5.75-2.574 5.75-5.75 0-3.176-2.574-5.75-5.75-5.75m18.203 0c-3.176 0-5.75 2.574-5.75 5.75 0 3.176 2.574 5.75 5.75 5.75 3.176 0 5.75-2.574 5.75-5.75 0-3.176-2.574-5.75-5.75-5.75m18.203 0c-3.176 0-5.75 2.574-5.75 5.75 0 3.176 2.574 5.75 5.75 5.75 3.176 0 5.75-2.574 5.75-5.75 0-3.176-2.574-5.75-5.75-5.75m18.203 0c-3.176 0-5.75 2.574-5.75 5.75 0 3.176 2.574 5.75 5.75 5.75 3.176 0 5.75-2.574 5.75-5.75 0-3.176-2.574-5.75-5.75-5.75m36.406 0c-3.176 0-5.75 2.574-5.75 5.75 0 3.176 2.574 5.75 5.75 5.75 3.176 0 5.75-2.574 5.75-5.75 0-3.176-2.574-5.75-5.75-5.75m18.203 0c-3.176 0-5.75 2.574-5.75 5.75 0 3.176 2.574 5.75 5.75 5.75 3.176 0 5.75-2.574 5.75-5.75 0-3.176-2.574-5.75-5.75-5.75m18.203 0c-3.176 0-5.75 2.574-5.75 5.75 0 3.176 2.574 5.75 5.75 5.75 3.176 0 5.75-2.574 5.75-5.75 0-3.176-2.574-5.75-5.75-5.75m18.203 0c-3.176 0-5.75 2.574-5.75 5.75 0 3.176 2.574 5.75 5.75 5.75 3.176 0 5.75-2.574 5.75-5.75 0-3.176-2.574-5.75-5.75-5.75m18.203 0c-3.176 0-5.75 2.574-5.75 5.75 0 3.176 2.574 5.75 5.75 5.75 3.176 0 5.75-2.574 5.75-5.75 0-3.176-2.574-5.75-5.75-5.75m18.203 0c-3.176 0-5.75 2.574-5.75 5.75 0 3.176 2.574 5.75 5.75 5.75 3.176 0 5.75-2.574 5.75-5.75 0-3.176-2.574-5.75-5.75-5.75m18.203 0c-3.176 0-5.75 2.574-5.75 5.75 0 3.176 2.574 5.75 5.75 5.75 3.176 0 5.75-2.574 5.75-5.75 0-3.176-2.574-5.75-5.75-5.75m16.85.168c-2.577.624-4.394 2.93-4.396 5.582 0 3.176 2.574 5.75 5.75 5.75 1.043-.003 2.066-.289 2.959-.828-1.185-3.661-2.636-7.165-4.313-10.504m-286.31 1.088c-1.572 3.26-2.939 6.666-4.047 10.225.153.013.307.019.461.019 3.176 0 5.75-2.574 5.75-5.75 0-1.749-.797-3.403-2.164-4.494m137.93.471c-1.053 1.074-1.644 2.519-1.645 4.02 0 3.176 2.574 5.75 5.75 5.75.145-.002.289-.009.434-.022l-1.828-4.387c0 0-.898-2.112-2.711-5.365m9.635 2.467c-.901 1.772-1.387 2.898-1.387 2.898l-1.584 3.801c1.953-.97 3.189-2.962 3.191-5.143-.002-.527-.076-1.05-.221-1.557m-151.15 11.955c-.621.002-1.238.104-1.826.303-.767 3.23-1.332 6.565-1.68 10 1 .775 2.237 1.196 3.506 1.197 3.176 0 5.75-2.574 5.75-5.75 0-3.176-2.574-5.75-5.75-5.75m18.203 0c-3.176 0-5.75 2.574-5.75 5.75 0 3.176 2.574 5.75 5.75 5.75 3.176 0 5.75-2.574 5.75-5.75 0-3.176-2.574-5.75-5.75-5.75m18.203 0c-3.176 0-5.75 2.574-5.75 5.75 0 3.176 2.574 5.75 5.75 5.75 3.176 0 5.75-2.574 5.75-5.75 0-3.176-2.574-5.75-5.75-5.75m18.203 0c-3.176 0-5.75 2.574-5.75 5.75 0 3.176 2.574 5.75 5.75 5.75 3.176 0 5.75-2.574 5.75-5.75 0-3.176-2.574-5.75-5.75-5.75m18.203 0c-3.176 0-5.75 2.574-5.75 5.75 0 3.176 2.574 5.75 5.75 5.75 3.176 0 5.75-2.574 5.75-5.75 0-3.176-2.574-5.75-5.75-5.75m18.203 0c-3.176 0-5.75 2.574-5.75 5.75 0 3.176 2.574 5.75 5.75 5.75 3.176 0 5.75-2.574 5.75-5.75 0-3.176-2.574-5.75-5.75-5.75m18.203 0c-3.176 0-5.75 2.574-5.75 5.75 0 3.176 2.574 5.75 5.75 5.75 3.176 0 5.75-2.574 5.75-5.75 0-3.176-2.574-5.75-5.75-5.75m18.203 0c-3.176 0-5.75 2.574-5.75 5.75 0 3.176 2.574 5.75 5.75 5.75 3.176 0 5.75-2.574 5.75-5.75 0-3.176-2.574-5.75-5.75-5.75m18.203 0c-3.176 0-5.75 2.574-5.75 5.75 0 3.176 2.574 5.75 5.75 5.75 3.176 0 5.75-2.574 5.75-5.75 0-3.176-2.574-5.75-5.75-5.75m18.203 0c-3.176 0-5.75 2.574-5.75 5.75 0 3.176 2.574 5.75 5.75 5.75 3.176 0 5.75-2.574 5.75-5.75 0-3.176-2.574-5.75-5.75-5.75m18.203 0c-3.176 0-5.75 2.574-5.75 5.75 0 3.176 2.574 5.75 5.75 5.75 3.176 0 5.75-2.574 5.75-5.75 0-3.176-2.574-5.75-5.75-5.75m18.203 0c-3.176 0-5.75 2.574-5.75 5.75 0 3.176 2.574 5.75 5.75 5.75 3.176 0 5.75-2.574 5.75-5.75 0-3.176-2.574-5.75-5.75-5.75m18.203 0c-3.176 0-5.75 2.574-5.75 5.75 0 3.176 2.574 5.75 5.75 5.75 3.176 0 5.75-2.574 5.75-5.75 0-3.176-2.574-5.75-5.75-5.75m18.203 0c-3.176 0-5.75 2.574-5.75 5.75 0 3.176 2.574 5.75 5.75 5.75 3.176 0 5.75-2.574 5.75-5.75 0-3.176-2.574-5.75-5.75-5.75m18.203 0c-3.176 0-5.75 2.574-5.75 5.75 0 3.176 2.574 5.75 5.75 5.75 3.176 0 5.75-2.574 5.75-5.75 0-3.176-2.574-5.75-5.75-5.75m18.203 0c-3.176 0-5.75 2.574-5.75 5.75 0 3.176 2.574 5.75 5.75 5.75 3.176 0 5.75-2.574 5.75-5.75 0-3.176-2.574-5.75-5.75-5.75m18.203 0c-3.176 0-5.75 2.574-5.75 5.75 0 3.176 2.574 5.75 5.75 5.75 3-.001 5.495-2.308 5.73-5.299-.147-.945-.312-1.882-.492-2.811-.928-2.062-2.977-3.389-5.238-3.391m-291.25 16.15c-1.449.002-2.843.551-3.904 1.537-.002.224-.008.446-.008.67 0 2.667.086 5.324.25 7.971 1.03.853 2.325 1.321 3.662 1.322 3.176 0 5.75-2.574 5.75-5.75 0-3.176-2.574-5.75-5.75-5.75m18.203 0c-3.176 0-5.75 2.574-5.75 5.75 0 3.176 2.574 5.75 5.75 5.75 3.176 0 5.75-2.574 5.75-5.75 0-3.176-2.574-5.75-5.75-5.75m18.203 0c-3.176 0-5.75 2.574-5.75 5.75 0 3.176 2.574 5.75 5.75 5.75 3.176 0 5.75-2.574 5.75-5.75 0-3.176-2.574-5.75-5.75-5.75m18.203 0c-3.176 0-5.75 2.574-5.75 5.75 0 3.176 2.574 5.75 5.75 5.75 3.176 0 5.75-2.574 5.75-5.75 0-3.176-2.574-5.75-5.75-5.75m18.203 0c-3.176 0-5.75 2.574-5.75 5.75 0 3.176 2.574 5.75 5.75 5.75 3.176 0 5.75-2.574 5.75-5.75 0-3.176-2.574-5.75-5.75-5.75m18.203 0c-3.176 0-5.75 2.574-5.75 5.75 0 3.176 2.574 5.75 5.75 5.75 3.176 0 5.75-2.574 5.75-5.75 0-3.176-2.574-5.75-5.75-5.75m18.203 0c-3.176 0-5.75 2.574-5.75 5.75 0 3.176 2.574 5.75 5.75 5.75 3.176 0 5.75-2.574 5.75-5.75 0-3.176-2.574-5.75-5.75-5.75m18.203 0c-3.176 0-5.75 2.574-5.75 5.75 0 3.176 2.574 5.75 5.75 5.75 3.176 0 5.75-2.574 5.75-5.75 0-3.176-2.574-5.75-5.75-5.75m18.203 0c-3.176 0-5.75 2.574-5.75 5.75 0 3.176 2.574 5.75 5.75 5.75 3.176 0 5.75-2.574 5.75-5.75 0-3.176-2.574-5.75-5.75-5.75m18.203 0c-3.176 0-5.75 2.574-5.75 5.75 0 3.176 2.574 5.75 5.75 5.75 3.176 0 5.75-2.574 5.75-5.75 0-3.176-2.574-5.75-5.75-5.75m18.203 0c-3.176 0-5.75 2.574-5.75 5.75 0 3.176 2.574 5.75 5.75 5.75 3.176 0 5.75-2.574 5.75-5.75 0-3.176-2.574-5.75-5.75-5.75m18.203 0c-3.176 0-5.75 2.574-5.75 5.75 0 3.176 2.574 5.75 5.75 5.75 3.176 0 5.75-2.574 5.75-5.75 0-3.176-2.574-5.75-5.75-5.75m18.203 0c-3.176 0-5.75 2.574-5.75 5.75 0 3.176 2.574 5.75 5.75 5.75 3.176 0 5.75-2.574 5.75-5.75 0-3.176-2.574-5.75-5.75-5.75m18.203 0c-3.176 0-5.75 2.574-5.75 5.75 0 3.176 2.574 5.75 5.75 5.75 3.176 0 5.75-2.574 5.75-5.75 0-3.176-2.574-5.75-5.75-5.75m18.203 0c-3.176 0-5.75 2.574-5.75 5.75 0 3.176 2.574 5.75 5.75 5.75 3.176 0 5.75-2.574 5.75-5.75 0-3.176-2.574-5.75-5.75-5.75m18.203 0c-3.176 0-5.75 2.574-5.75 5.75 0 3.176 2.574 5.75 5.75 5.75 3.176 0 5.75-2.574 5.75-5.75 0-3.176-2.574-5.75-5.75-5.75m18.203 0c-3.176 0-5.75 2.574-5.75 5.75 0 3.176 2.574 5.75 5.75 5.75 3.176 0 5.75-2.574 5.75-5.75 0-3.176-2.574-5.75-5.75-5.75m-291.25 16.15c-1.08.002-2.138.309-3.053.885.398 3.495.924 6.971 1.584 10.422.479.128.973.193 1.469.193 3.176 0 5.75-2.574 5.75-5.75 0-3.176-2.574-5.75-5.75-5.75m18.203 0c-3.176 0-5.75 2.574-5.75 5.75 0 3.176 2.574 5.75 5.75 5.75 3.176 0 5.75-2.574 5.75-5.75 0-3.176-2.574-5.75-5.75-5.75m18.203 0c-3.176 0-5.75 2.574-5.75 5.75 0 3.176 2.574 5.75 5.75 5.75 3.176 0 5.75-2.574 5.75-5.75 0-3.176-2.574-5.75-5.75-5.75m18.203 0c-3.176 0-5.75 2.574-5.75 5.75 0 3.176 2.574 5.75 5.75 5.75 3.176 0 5.75-2.574 5.75-5.75 0-3.176-2.574-5.75-5.75-5.75m18.203 0c-3.176 0-5.75 2.574-5.75 5.75 0 3.176 2.574 5.75 5.75 5.75 3.176 0 5.75-2.574 5.75-5.75 0-3.176-2.574-5.75-5.75-5.75m18.203 0c-3.176 0-5.75 2.574-5.75 5.75 0 3.176 2.574 5.75 5.75 5.75 3.176 0 5.75-2.574 5.75-5.75 0-3.176-2.574-5.75-5.75-5.75m18.203 0c-3.176 0-5.75 2.574-5.75 5.75 0 3.176 2.574 5.75 5.75 5.75 3.176 0 5.75-2.574 5.75-5.75 0-3.176-2.574-5.75-5.75-5.75m18.203 0c-3.176 0-5.75 2.574-5.75 5.75 0 3.176 2.574 5.75 5.75 5.75 3.176 0 5.75-2.574 5.75-5.75 0-3.176-2.574-5.75-5.75-5.75m18.203 0c-3.176 0-5.75 2.574-5.75 5.75 0 3.176 2.574 5.75 5.75 5.75 3.176 0 5.75-2.574 5.75-5.75 0-3.176-2.574-5.75-5.75-5.75m18.203 0c-3.176 0-5.75 2.574-5.75 5.75 0 3.176 2.574 5.75 5.75 5.75 3.176 0 5.75-2.574 5.75-5.75 0-3.176-2.574-5.75-5.75-5.75m18.203 0c-3.176 0-5.75 2.574-5.75 5.75 0 3.176 2.574 5.75 5.75 5.75 3.176 0 5.75-2.574 5.75-5.75 0-3.176-2.574-5.75-5.75-5.75m18.203 0c-3.176 0-5.75 2.574-5.75 5.75 0 3.176 2.574 5.75 5.75 5.75 3.176 0 5.75-2.574 5.75-5.75 0-3.176-2.574-5.75-5.75-5.75m18.203 0c-3.176 0-5.75 2.574-5.75 5.75 0 3.176 2.574 5.75 5.75 5.75 3.176 0 5.75-2.574 5.75-5.75 0-3.176-2.574-5.75-5.75-5.75m18.203 0c-3.176 0-5.75 2.574-5.75 5.75 0 3.176 2.574 5.75 5.75 5.75 3.176 0 5.75-2.574 5.75-5.75 0-3.176-2.574-5.75-5.75-5.75m18.203 0c-3.176 0-5.75 2.574-5.75 5.75 0 3.176 2.574 5.75 5.75 5.75 3.176 0 5.75-2.574 5.75-5.75 0-3.176-2.574-5.75-5.75-5.75m18.203 0c-3.176 0-5.75 2.574-5.75 5.75 0 3.176 2.574 5.75 5.75 5.75 3.176 0 5.75-2.574 5.75-5.75 0-3.176-2.574-5.75-5.75-5.75m18.203 0c-3.176 0-5.75 2.574-5.75 5.75 0 3.176 2.574 5.75 5.75 5.75 1.801-.002 3.497-.848 4.582-2.285.314-1.784.591-3.575.836-5.371-.808-2.3-2.98-3.841-5.418-3.844m-291.25 16.15c-.15.002-.3.01-.449.023.832 3.669 1.81 7.307 2.91 10.916 2.01-.95 3.286-2.97 3.289-5.189 0-3.176-2.574-5.75-5.75-5.75m18.203 0c-3.176 0-5.75 2.574-5.75 5.75 0 3.176 2.574 5.75 5.75 5.75 3.176 0 5.75-2.574 5.75-5.75 0-3.176-2.574-5.75-5.75-5.75m18.203 0c-3.176 0-5.75 2.574-5.75 5.75 0 3.176 2.574 5.75 5.75 5.75 3.176 0 5.75-2.574 5.75-5.75 0-3.176-2.574-5.75-5.75-5.75m18.203 0c-3.176 0-5.75 2.574-5.75 5.75 0 3.176 2.574 5.75 5.75 5.75 3.176 0 5.75-2.574 5.75-5.75 0-3.176-2.574-5.75-5.75-5.75m18.203 0c-3.176 0-5.75 2.574-5.75 5.75 0 3.176 2.574 5.75 5.75 5.75 3.176 0 5.75-2.574 5.75-5.75 0-3.176-2.574-5.75-5.75-5.75m18.203 0c-3.176 0-5.75 2.574-5.75 5.75 0 3.176 2.574 5.75 5.75 5.75 3.176 0 5.75-2.574 5.75-5.75 0-3.176-2.574-5.75-5.75-5.75m18.203 0c-3.176 0-5.75 2.574-5.75 5.75 0 3.176 2.574 5.75 5.75 5.75 3.176 0 5.75-2.574 5.75-5.75 0-3.176-2.574-5.75-5.75-5.75m18.203 0c-3.176 0-5.75 2.574-5.75 5.75 0 3.176 2.574 5.75 5.75 5.75 3.176 0 5.75-2.574 5.75-5.75 0-3.176-2.574-5.75-5.75-5.75m18.203 0c-3.176 0-5.75 2.574-5.75 5.75 0 3.176 2.574 5.75 5.75 5.75 3.176 0 5.75-2.574 5.75-5.75 0-3.176-2.574-5.75-5.75-5.75m18.203 0c-3.176 0-5.75 2.574-5.75 5.75 0 3.176 2.574 5.75 5.75 5.75 3.176 0 5.75-2.574 5.75-5.75 0-3.176-2.574-5.75-5.75-5.75m18.203 0c-3.176 0-5.75 2.574-5.75 5.75 0 3.176 2.574 5.75 5.75 5.75 3.176 0 5.75-2.574 5.75-5.75 0-3.176-2.574-5.75-5.75-5.75m18.203 0c-3.176 0-5.75 2.574-5.75 5.75 0 3.176 2.574 5.75 5.75 5.75 3.176 0 5.75-2.574 5.75-5.75 0-3.176-2.574-5.75-5.75-5.75m18.203 0c-3.176 0-5.75 2.574-5.75 5.75 0 3.176 2.574 5.75 5.75 5.75 3.176 0 5.75-2.574 5.75-5.75 0-3.176-2.574-5.75-5.75-5.75m18.203 0c-3.176 0-5.75 2.574-5.75 5.75 0 3.176 2.574 5.75 5.75 5.75 3.176 0 5.75-2.574 5.75-5.75 0-3.176-2.574-5.75-5.75-5.75m18.203 0c-3.176 0-5.75 2.574-5.75 5.75 0 3.176 2.574 5.75 5.75 5.75 3.176 0 5.75-2.574 5.75-5.75 0-3.176-2.574-5.75-5.75-5.75m18.203 0c-3.176 0-5.75 2.574-5.75 5.75 0 3.176 2.574 5.75 5.75 5.75 3.176 0 5.75-2.574 5.75-5.75 0-3.176-2.574-5.75-5.75-5.75m18.203 0c-3.176 0-5.75 2.574-5.75 5.75 0 3.176 2.574 5.75 5.75 5.75l.113-.006c1.086-3.519 2.058-7.07 2.891-10.643-.904-.555-1.943-.85-3-.852m-273.05 16.15c-3.176 0-5.75 2.574-5.75 5.75 0 3.176 2.574 5.75 5.75 5.75 3.176 0 5.75-2.574 5.75-5.75 0-3.176-2.574-5.75-5.75-5.75m18.203 0c-3.176 0-5.75 2.574-5.75 5.75 0 3.176 2.574 5.75 5.75 5.75 3.176 0 5.75-2.574 5.75-5.75 0-3.176-2.574-5.75-5.75-5.75m18.203 0c-3.176 0-5.75 2.574-5.75 5.75 0 3.176 2.574 5.75 5.75 5.75 3.176 0 5.75-2.574 5.75-5.75 0-3.176-2.574-5.75-5.75-5.75m18.203 0c-3.176 0-5.75 2.574-5.75 5.75 0 3.176 2.574 5.75 5.75 5.75 3.176 0 5.75-2.574 5.75-5.75 0-3.176-2.574-5.75-5.75-5.75m18.203 0c-3.176 0-5.75 2.574-5.75 5.75 0 3.176 2.574 5.75 5.75 5.75 3.176 0 5.75-2.574 5.75-5.75 0-3.176-2.574-5.75-5.75-5.75m18.203 0c-3.176 0-5.75 2.574-5.75 5.75 0 3.176 2.574 5.75 5.75 5.75 3.176 0 5.75-2.574 5.75-5.75 0-3.176-2.574-5.75-5.75-5.75m18.203 0c-3.176 0-5.75 2.574-5.75 5.75 0 3.176 2.574 5.75 5.75 5.75 3.176 0 5.75-2.574 5.75-5.75 0-3.176-2.574-5.75-5.75-5.75m18.203 0c-3.176 0-5.75 2.574-5.75 5.75 0 3.176 2.574 5.75 5.75 5.75 3.176 0 5.75-2.574 5.75-5.75 0-3.176-2.574-5.75-5.75-5.75m18.203 0c-3.176 0-5.75 2.574-5.75 5.75 0 3.176 2.574 5.75 5.75 5.75 3.176 0 5.75-2.574 5.75-5.75 0-3.176-2.574-5.75-5.75-5.75m18.203 0c-3.176 0-5.75 2.574-5.75 5.75 0 3.176 2.574 5.75 5.75 5.75 3.176 0 5.75-2.574 5.75-5.75 0-3.176-2.574-5.75-5.75-5.75m18.203 0c-3.176 0-5.75 2.574-5.75 5.75 0 3.176 2.574 5.75 5.75 5.75 3.176 0 5.75-2.574 5.75-5.75 0-3.176-2.574-5.75-5.75-5.75m18.203 0c-3.176 0-5.75 2.574-5.75 5.75 0 3.176 2.574 5.75 5.75 5.75 3.176 0 5.75-2.574 5.75-5.75 0-3.176-2.574-5.75-5.75-5.75m18.203 0c-3.176 0-5.75 2.574-5.75 5.75 0 3.176 2.574 5.75 5.75 5.75 3.176 0 5.75-2.574 5.75-5.75 0-3.176-2.574-5.75-5.75-5.75m18.203 0c-3.176 0-5.75 2.574-5.75 5.75 0 3.176 2.574 5.75 5.75 5.75 3.176 0 5.75-2.574 5.75-5.75 0-3.176-2.574-5.75-5.75-5.75m18.203 0c-3.176 0-5.75 2.574-5.75 5.75 0 3.176 2.574 5.75 5.75 5.75 3.176 0 5.75-2.574 5.75-5.75 0-3.176-2.574-5.75-5.75-5.75m16.736.197c-2.522.665-4.28 2.945-4.283 5.553 0 1.159.351 2.292 1.01 3.248 1.175-2.909 2.264-5.845 3.277-8.801m-271.58 15.951c-2.65.002-4.956 1.816-5.582 4.391 1.077 2.231 2.182 4.451 3.342 6.648.708.302 1.47.459 2.24.461 3.176 0 5.75-2.574 5.75-5.75 0-3.176-2.574-5.75-5.75-5.75m18.203 0c-3.176 0-5.75 2.574-5.75 5.75 0 3.176 2.574 5.75 5.75 5.75 3.176 0 5.75-2.574 5.75-5.75 0-3.176-2.574-5.75-5.75-5.75m18.203 0c-3.176 0-5.75 2.574-5.75 5.75 0 3.176 2.574 5.75 5.75 5.75 3.176 0 5.75-2.574 5.75-5.75 0-3.176-2.574-5.75-5.75-5.75m18.203 0c-3.176 0-5.75 2.574-5.75 5.75 0 3.176 2.574 5.75 5.75 5.75 3.176 0 5.75-2.574 5.75-5.75 0-3.176-2.574-5.75-5.75-5.75m18.203 0c-3.176 0-5.75 2.574-5.75 5.75 0 3.176 2.574 5.75 5.75 5.75 3.176 0 5.75-2.574 5.75-5.75 0-3.176-2.574-5.75-5.75-5.75m18.203 0c-3.176 0-5.75 2.574-5.75 5.75 0 3.176 2.574 5.75 5.75 5.75 3.176 0 5.75-2.574 5.75-5.75 0-3.176-2.574-5.75-5.75-5.75m18.203 0c-3.176 0-5.75 2.574-5.75 5.75 0 3.176 2.574 5.75 5.75 5.75 3.176 0 5.75-2.574 5.75-5.75 0-3.176-2.574-5.75-5.75-5.75m18.203 0c-3.176 0-5.75 2.574-5.75 5.75 0 3.176 2.574 5.75 5.75 5.75 3.176 0 5.75-2.574 5.75-5.75 0-3.176-2.574-5.75-5.75-5.75m18.203 0c-3.176 0-5.75 2.574-5.75 5.75 0 3.176 2.574 5.75 5.75 5.75 3.176 0 5.75-2.574 5.75-5.75 0-3.176-2.574-5.75-5.75-5.75m18.203 0c-3.176 0-5.75 2.574-5.75 5.75 0 3.176 2.574 5.75 5.75 5.75 3.176 0 5.75-2.574 5.75-5.75 0-3.176-2.574-5.75-5.75-5.75m18.203 0c-3.176 0-5.75 2.574-5.75 5.75 0 3.176 2.574 5.75 5.75 5.75 3.176 0 5.75-2.574 5.75-5.75 0-3.176-2.574-5.75-5.75-5.75m18.203 0c-3.176 0-5.75 2.574-5.75 5.75 0 3.176 2.574 5.75 5.75 5.75 3.176 0 5.75-2.574 5.75-5.75 0-3.176-2.574-5.75-5.75-5.75m18.203 0c-3.176 0-5.75 2.574-5.75 5.75 0 3.176 2.574 5.75 5.75 5.75 3.176 0 5.75-2.574 5.75-5.75 0-3.176-2.574-5.75-5.75-5.75m18.203 0c-3.176 0-5.75 2.574-5.75 5.75 0 3.176 2.574 5.75 5.75 5.75 3.176 0 5.75-2.574 5.75-5.75 0-3.176-2.574-5.75-5.75-5.75m18.203 0c-3.176 0-5.75 2.574-5.75 5.75 0 3.176 2.574 5.75 5.75 5.75 3.176 0 5.75-2.574 5.75-5.75 0-3.176-2.574-5.75-5.75-5.75m-236.64 16.15c-3.176 0-5.75 2.574-5.75 5.75 0 3.176 2.574 5.75 5.75 5.75 3.176 0 5.75-2.574 5.75-5.75 0-3.176-2.574-5.75-5.75-5.75m18.203 0c-3.176 0-5.75 2.574-5.75 5.75 0 3.176 2.574 5.75 5.75 5.75 3.176 0 5.75-2.574 5.75-5.75 0-3.176-2.574-5.75-5.75-5.75m18.203 0c-3.176 0-5.75 2.574-5.75 5.75 0 3.176 2.574 5.75 5.75 5.75 3.176 0 5.75-2.574 5.75-5.75 0-3.176-2.574-5.75-5.75-5.75m18.203 0c-3.176 0-5.75 2.574-5.75 5.75 0 3.176 2.574 5.75 5.75 5.75 3.176 0 5.75-2.574 5.75-5.75 0-3.176-2.574-5.75-5.75-5.75m18.203 0c-3.176 0-5.75 2.574-5.75 5.75 0 3.176 2.574 5.75 5.75 5.75 3.176 0 5.75-2.574 5.75-5.75 0-3.176-2.574-5.75-5.75-5.75m18.203 0c-3.176 0-5.75 2.574-5.75 5.75 0 3.176 2.574 5.75 5.75 5.75 3.176 0 5.75-2.574 5.75-5.75 0-3.176-2.574-5.75-5.75-5.75m18.203 0c-3.176 0-5.75 2.574-5.75 5.75 0 3.176 2.574 5.75 5.75 5.75 3.176 0 5.75-2.574 5.75-5.75 0-3.176-2.574-5.75-5.75-5.75m18.203 0c-3.176 0-5.75 2.574-5.75 5.75 0 3.176 2.574 5.75 5.75 5.75 3.176 0 5.75-2.574 5.75-5.75 0-3.176-2.574-5.75-5.75-5.75m18.203 0c-3.176 0-5.75 2.574-5.75 5.75 0 3.176 2.574 5.75 5.75 5.75 3.176 0 5.75-2.574 5.75-5.75 0-3.176-2.574-5.75-5.75-5.75m18.203 0c-3.176 0-5.75 2.574-5.75 5.75 0 3.176 2.574 5.75 5.75 5.75 3.176 0 5.75-2.574 5.75-5.75 0-3.176-2.574-5.75-5.75-5.75m18.203 0c-3.176 0-5.75 2.574-5.75 5.75 0 3.176 2.574 5.75 5.75 5.75 3.176 0 5.75-2.574 5.75-5.75 0-3.176-2.574-5.75-5.75-5.75m18.203 0c-3.176 0-5.75 2.574-5.75 5.75 0 3.176 2.574 5.75 5.75 5.75 3.176 0 5.75-2.574 5.75-5.75 0-3.176-2.574-5.75-5.75-5.75m18.203 0c-3.176 0-5.75 2.574-5.75 5.75 0 3.176 2.574 5.75 5.75 5.75 3.176 0 5.75-2.574 5.75-5.75 0-3.176-2.574-5.75-5.75-5.75m18.203 0c-3.176 0-5.75 2.574-5.75 5.75.003 1.648.713 3.215 1.949 4.305 2.01-3.189 3.942-6.42 5.791-9.695-.637-.236-1.311-.358-1.99-.359m-249.57 8.02c.312-.718.474-1.491.477-2.273-6.265-10.65-4.577-4.397-.477 2.273" fill="#cb7b0e"/><g fill-rule="evenodd"><path d="m128.71-143.39c25.5 32 25 29.5 25 29.5l-22.5 52 144.25-40.5v-95z" fill="#d50707"/><path d="m170.21-123.39l105.25 21v-95z" fill="#9d0303"/><path d="m877.46-143.39c-25.5 32-25 29.5-25 29.5l22.5 52-144.25-40.5v-95z" fill="#d50707"/><path d="m835.96-123.39l-105.25 21v-95z" fill="#9d0303"/><path d="m168.96-207.39l1.25 84c0 0 135.21-22.81 332.47-26.955 197.26 4.145 332.47 26.955 332.47 26.955l1.25-84c0 0-52.37-29.12-333.72-29.12-105.68 2.434-225.97-2.967-333.72 29.12" fill="#e20c0c"/></g><g fill="#fff"><path d="m209.27-193.42l7.818-.986 24.08 40.554-10.666 1.345-4.843-8.625-16.666 2.102-2.429 9.542-10.424 1.315 13.13-45.25m5.211 12.03l-3.531 13.99 10.485-1.322-6.954-12.668"/><path d="m239.47-200l9.108-1 5.05 45.903-9.108 1-5.05-45.903"/><path d="m255.72-201.76l9.115-.931 4.691 45.941-9.115.931-4.691-45.941"/><path d="m302.69-191.94q-1.55-1.58-3.7-2.31-2.089-.735-4.766-.498-2.677.237-4.898 1.476-2.16 1.233-3.697 3.27-1.481 1.971-2.229 4.612-.687 2.636-.423 5.618.269 3.042 1.408 5.517 1.194 2.409 3 4.15 1.804 1.68 4.086 2.521 2.343.835 4.898.609 2.921-.258 5.064-1.674 2.144-1.416 3.41-3.736l8.432 5.203q-2.399 4.076-6.436 6.272-4.04 2.197-8.479 2.589-5.05.447-9.45-.759-4.399-1.205-7.761-3.852-3.367-2.707-5.503-6.75-2.075-4.048-2.532-9.22-.457-5.172.875-9.521 1.393-4.355 4.238-7.55 2.84-3.256 6.959-5.215 4.119-1.959 9.17-2.405 1.825-.161 3.805.031 2.035.127 3.986.69 2.01.558 3.884 1.619 1.872 1.061 3.428 2.702l-6.774 6.609"/><path d="m315.87-175.81q-.25-3.534.828-6.488 1.077-2.954 3.129-5.12 2.108-2.231 5.02-3.539 2.969-1.312 6.381-1.553 3.412-.241 6.475.645 3.124.882 5.464 2.798 2.397 1.852 3.879 4.625 1.482 2.773 1.732 6.308.25 3.534-.828 6.488-1.077 2.954-3.185 5.185-2.052 2.166-5.02 3.478-2.908 1.308-6.32 1.549-3.412.241-6.536-.64-3.063-.886-5.46-2.737-2.34-1.917-3.822-4.69-1.482-2.773-1.732-6.308m9.14-.646q.237 3.351 2.272 5.29 2.096 1.934 5.569 1.689 3.473-.245 5.216-2.451 1.803-2.209 1.567-5.561-.237-3.351-2.333-5.285-2.035-1.938-5.508-1.693-3.473.245-5.277 2.455-1.743 2.205-1.506 5.557"/><path d="m353.73-193.37l8.785-.452.207 4.03.122-.006q.383-.876 1.132-1.771.749-.895 1.813-1.623 1.064-.728 2.445-1.227 1.381-.499 3.03-.584 3.111-.16 5.556.998 2.506 1.155 3.868 3.838 1.438-2.949 3.633-4.285 2.194-1.336 5.489-1.506 2.989-.154 5.056.779 2.124.869 3.375 2.579 1.308 1.645 1.919 3.999.668 2.29.807 4.974l.902 17.508-9.151.471-.889-17.264q-.107-2.074-1.097-3.491-.933-1.481-3.19-1.365-1.586.082-2.656.687-1.012.541-1.636 1.491-.563.946-.805 2.182-.181 1.233-.112 2.575l.807 15.678-9.151.471-.807-15.678q-.041-.793-.162-1.949-.121-1.156-.54-2.174-.419-1.018-1.311-1.706-.831-.691-2.417-.61-1.769.091-2.833.819-1.067.667-1.62 1.796-.496 1.065-.61 2.417-.114 1.352-.038 2.816l.76 14.763-9.151.471-1.527-29.648"/><path d="m407.41-195.95l9.156-.342 1.109 29.667-9.156.342-1.109-29.667m-1.082-9.312q-.082-2.198 1.387-3.781 1.528-1.646 3.725-1.729 2.198-.082 3.783 1.448 1.644 1.467 1.726 3.664.082 2.198-1.446 3.844-1.469 1.583-3.667 1.665-2.198.082-3.842-1.385-1.585-1.53-1.668-3.728"/><path d="m443.88-187.53q-.699-.958-1.938-1.534-1.24-.637-2.645-.597-3.48.099-5.376 2.23-1.834 2.13-1.739 5.488.095 3.358 2.047 5.381 2.01 2.02 5.493 1.922 1.527-.043 2.607-.746 1.08-.703 1.848-1.641l6.225 6.179q-2.075 2.259-4.98 3.258-2.846.936-5.471 1.01-3.419.097-6.504-.916-3.02-1.014-5.339-2.965-2.257-2.01-3.62-4.847-1.364-2.834-1.464-6.375-.1-3.542 1.101-6.448 1.201-2.906 3.342-4.983 2.2-2.14 5.161-3.324 3.02-1.186 6.441-1.282 2.626-.074 5.521.76 2.955.772 5.154 2.91l-5.865 6.521"/><path d="m470.37-188.9q-2.058-2.47-5.356-2.414-1.16.02-2.251.588-1.09.568-1.067 1.912.019 1.099 1.127 1.63 1.169.469 2.886.868 1.777.337 3.74.792 2.023.393 3.749 1.342 1.788.947 2.916 2.639 1.188 1.629 1.236 4.439.048 2.871-1.202 4.786-1.191 1.853-3.125 3.046-1.936 1.132-4.372 1.601-2.435.53-4.817.57-3.115.053-6.305-.749-3.191-.862-5.428-3.085l5.454-6.263q1.309 1.566 2.851 2.396 1.601.767 3.678.732 1.588-.027 2.863-.476 1.274-.51 1.254-1.732-.02-1.16-1.189-1.691-1.11-.592-2.887-.929-1.717-.399-3.74-.792-1.963-.456-3.749-1.342-1.726-.887-2.914-2.517-1.128-1.692-1.176-4.501-.044-2.626.962-4.537 1.067-1.912 2.757-3.162 1.751-1.251 4-1.839 2.25-.649 4.57-.688 2.932-.05 5.939.755 3.01.804 5.121 2.968l-5.525 5.653"/><path d="m511.65-200.25q-1.41-1.706-3.49-2.615-2.02-.91-4.706-.901-2.688.009-5.01 1.054-2.257 1.046-3.961 2.945-1.643 1.838-2.613 4.406-.908 2.568-.898 5.562.01 3.054.934 5.617.985 2.501 2.641 4.39 1.655 1.827 3.858 2.859 2.263 1.031 4.829 1.023 2.932-.009 5.188-1.238 2.256-1.229 3.715-3.433l7.96 5.9q-2.736 3.857-6.945 5.703-4.209 1.846-8.668 1.86-5.07.016-9.351-1.558-4.281-1.575-7.406-4.497-3.125-2.983-4.91-7.192-1.724-4.209-1.74-9.402-.017-5.192 1.68-9.413 1.758-4.221 4.864-7.163 3.106-3 7.377-4.605 4.271-1.602 9.341-1.618 1.833-.006 3.788.354 2.02.299 3.913 1.026 1.957.727 3.732 1.943 1.775 1.216 3.186 2.983l-7.311 6.01"/><path d="m523.38-183.07q.043-3.543 1.361-6.398 1.318-2.855 3.541-4.844 2.285-2.049 5.292-3.112 3.067-1.062 6.488-1.02 3.42.042 6.4 1.178 3.041 1.137 5.214 3.24 2.235 2.043 3.483 4.93 1.248 2.886 1.204 6.429-.043 3.543-1.361 6.398-1.318 2.855-3.603 4.904-2.224 1.989-5.291 3.051-3.01 1.063-6.427 1.021-3.421-.042-6.461-1.179-2.98-1.136-5.215-3.179-2.174-2.104-3.421-4.99-1.248-2.886-1.204-6.429m9.162.112q-.041 3.359 1.827 5.459 1.929 2.101 5.411 2.143 3.482.043 5.4-2.01 1.98-2.053 2.02-5.412.041-3.359-1.888-5.46-1.868-2.1-5.35-2.142-3.482-.043-5.462 2.01-1.919 2.054-1.96 5.413"/><path d="m562.41-197.38l8.793.233-.107 4.03.122.003q.45-.844 1.266-1.677.816-.834 1.933-1.477 1.117-.643 2.533-1.033 1.416-.39 3.064-.347 3.481.092 5.589 1.248 2.11 1.095 3.22 3.02 1.171 1.925 1.531 4.501.36 2.576.281 5.568l-.433 16.365-9.16-.242.384-14.533q.034-1.282-.053-2.629-.024-1.406-.482-2.579-.397-1.172-1.354-1.93-.897-.757-2.667-.804-1.771-.047-2.888.596-1.115.582-1.755 1.665-.577 1.024-.796 2.362-.219 1.339-.257 2.804l-.391 14.777-9.16-.242.785-29.677"/><path d="m614.4-187q-1.916-2.581-5.212-2.71-1.16-.045-2.28.461-1.12.506-1.173 1.849-.043 1.099 1.034 1.691 1.141.534 2.833 1.028 1.756.435 3.69 1 1.998.506 3.668 1.55 1.732 1.046 2.764 2.798 1.095 1.693.985 4.501-.112 2.869-1.468 4.711-1.292 1.783-3.291 2.867-1.996 1.022-4.454 1.354-2.461.393-4.841.3-3.113-.122-6.254-1.1-3.138-1.04-5.247-3.384l5.796-5.948q1.22 1.637 2.712 2.551 1.556.856 3.631.937 1.587.062 2.886-.315 1.301-.438 1.349-1.659.045-1.16-1.093-1.754-1.075-.653-2.831-1.089-1.692-.494-3.69-1-1.934-.565-3.668-1.55-1.673-.982-2.769-2.676-1.032-1.752-.922-4.56.103-2.625 1.214-4.476 1.173-1.849 2.93-3 1.818-1.152 4.098-1.613 2.282-.522 4.602-.431 2.93.115 5.887 1.086 2.957.972 4.947 3.25l-5.833 5.335"/><path d="m626.71-195.2l9.152.44-1.427 29.653-9.152-.44 1.427-29.653m-.283-9.37q.106-2.197 1.704-3.648 1.663-1.51 3.859-1.404 2.197.106 3.646 1.765 1.513 1.602 1.407 3.798-.106 2.197-1.768 3.707-1.599 1.452-3.795 1.346-2.197-.106-3.71-1.707-1.449-1.66-1.343-3.856"/><path d="m672.22-162.96l-8.415-.501.232-3.903-.122-.007q-.596.76-1.561 1.559-.901.742-2.16 1.34-1.198.602-2.687.942-1.428.343-2.952.253-3.293-.196-5.91-1.453-2.614-1.318-4.446-3.446-1.767-2.186-2.637-5.05-.87-2.867-.67-6.22.185-3.11 1.267-5.86 1.146-2.808 2.984-4.901 1.899-2.09 4.475-3.222 2.58-1.193 5.751-1 2.866.17 5.251 1.23 2.449 1 3.908 3.231l.122.007 1.168-19.635 9.147.544-2.742 46.1m-7.533-15.318q.2-3.354-1.628-5.543-1.767-2.186-5.243-2.392-3.476-.207-5.55 1.75-2.01 1.961-2.213 5.315-.2 3.354 1.567 5.539 1.828 2.189 5.304 2.396 3.476.207 5.489-1.754 2.075-1.957 2.274-5.311"/><path d="m708.1-165.46q-2.404 2.637-5.869 3.907-3.465 1.27-7.06.999-3.411-.257-6.374-1.583-2.902-1.321-5-3.501-2.037-2.236-3.1-5.196-1.063-2.959-.797-6.492.266-3.533 1.761-6.299 1.495-2.766 3.839-4.611 2.41-1.901 5.477-2.772 3.128-.867 6.539-.61 3.167.239 5.643 1.528 2.537 1.294 4.147 3.498 1.676 2.148 2.435 5.084.759 2.936.492 6.469l-.216 2.863-21.2-1.598q.351 2.661 2.059 4.382 1.713 1.661 4.393 1.863 2.254.17 3.85-.69 1.662-.916 2.939-2.413l6.04 5.172m-6.753-13.618q.235-2.31-1.224-4.074-1.46-1.764-3.957-1.952-1.523-.115-2.717.285-1.194.4-2.107 1.128-.847.671-1.412 1.67-.5.942-.643 2.034l12.06.909"/><path d="m717.4-189.3l9.127.81-.421 4.746.122.011q1.703-2.609 3.83-3.769 2.132-1.221 5.174-.951.791.07 1.577.201.786.131 1.439.373l-.739 8.336q-.947-.391-1.909-.599-.896-.263-1.931-.355-2.616-.232-4.202.363-1.586.595-2.557 1.858-.904 1.208-1.31 3.01-.405 1.804-.6 3.994l-1.096 12.352-9.127-.81 2.623-29.571"/><path d="m767.01-159.85q-2.475 2.57-5.973 3.746-3.498 1.176-7.083.807-3.403-.35-6.329-1.756-2.865-1.4-4.907-3.636-1.975-2.291-2.958-5.278-.983-2.987-.62-6.511.362-3.524 1.932-6.249 1.57-2.725 3.963-4.505 2.461-1.835 5.55-2.623 3.151-.782 6.553-.432 3.16.325 5.6 1.681 2.501 1.362 4.05 3.609 1.617 2.193 2.296 5.148.679 2.956.317 6.48l-.293 2.856-21.15-2.173q.278 2.669 1.939 4.436 1.667 1.706 4.341 1.981 2.248.231 3.867-.585 1.686-.871 3-2.332l5.9 5.334m-6.381-13.797q.298-2.303-1.113-4.106-1.411-1.803-3.903-2.059-1.519-.156-2.724.211-1.204.367-2.136 1.07-.865.648-1.457 1.631-.525.929-.698 2.02l12.03 1.236"/><path d="m804.46-150.22l-8.368-1.017.472-3.881-.121-.015q-.642.722-1.654 1.46-.945.685-2.239 1.205-1.233.527-2.74.775-1.446.255-2.962.071-3.274-.398-5.81-1.814-2.528-1.476-4.225-3.713-1.629-2.29-2.321-5.205-.692-2.915-.287-6.25.376-3.093 1.624-5.771 1.317-2.732 3.28-4.709 2.024-1.969 4.665-2.941 2.648-1.032 5.802-.649 2.85.346 5.165 1.551 2.383 1.151 3.702 3.465l.121.015 2.373-19.526 9.1 1.105-5.572 45.843m-6.577-15.752q.405-3.335-1.285-5.633-1.629-2.29-5.086-2.71-3.456-.42-5.647 1.406-2.13 1.833-2.536 5.168-.405 3.335 1.224 5.625 1.69 2.298 5.146 2.718 3.456.42 5.587-1.413 2.191-1.826 2.596-5.161"/></g></g></svg>